<?xml version="1.0" encoding="UTF-8"?>
<!DOCTYPE svg PUBLIC "-//W3C//DTD SVG 1.1//EN" "http://www.w3.org/Graphics/SVG/1.1/DTD/svg11.dtd">
<!-- Creator: CorelDRAW X5 -->
<svg xmlns="http://www.w3.org/2000/svg" xml:space="preserve" width="100%" height="100%" style="shape-rendering:geometricPrecision; text-rendering:geometricPrecision; image-rendering:optimizeQuality; fill-rule:evenodd; clip-rule:evenodd"
viewBox="0 0 7883 21789"
 xmlns:xlink="http://www.w3.org/1999/xlink">
 <defs>
  <style type="text/css">
   <![CDATA[
    .str0 {stroke:black;stroke-width:52.92;stroke-linecap:round;stroke-linejoin:round}
    .fil0 {fill:none}
   ]]>
  </style>
 </defs>
 <g id="Layer_x0020_1">
  <metadata id="CorelCorpID_0Corel-Layer"/>
  <path class="fil0 str0" d="M7856 5226c-274,144 -920,-165 -1314,-354 -532,-255 -998,-593 -55,41 68,45 34,171 55,275 413,2063 -37,4172 -66,4949 0,477 26,659 0,767 -275,1147 -315,1405 -630,2035 -315,630 -848,1518 -1010,1955 -252,681 -661,1559 -850,2261 -44,-90 -406,-214 -521,-254 0,0 531,245 552,371 -31,391 -380,1483 -431,1900 -27,216 152,1224 194,1311 42,87 -94,466 -318,153 -204,-285 -161,-976 -277,-1119 -9,-10 -20,-19 -31,-26 -2,-1 -3,-1 -5,-2 -39,-13 -70,-12 -95,-2 -26,16 -52,49 -75,107l0 1c-7,30 -10,63 -9,93 2,107 -45,1570 -9,1644 36,73 9,307 -113,328 0,-2 -1,-4 -1,-7l1 6c-137,67 -252,-13 -264,-202 -20,-308 -102,-1667 -162,-1791 -5,0 -11,-1 -16,-1 -1,2 -2,3 -2,5 -141,285 -480,1671 -449,1904 31,233 -324,273 -411,-22 -84,-285 299,-1812 294,-2073 -10,-1 -18,-3 -25,-5 -212,185 -669,1514 -745,1735 -79,229 -447,171 -353,-104 51,-443 559,-1914 726,-2504 60,-212 -42,-177 -212,-82 -242,134 -590,310 -806,415 -87,43 -518,-46 -362,-274l0 0 0 0c87,-46 174,-114 257,-183 163,-135 314,-277 431,-280l0 0c50,-337 1374,-1380 1674,-1413 160,-1292 783,-3176 846,-3583 110,-708 170,-2245 570,-2673 94,-204 417,-675 457,-811 -201,-166 -321,-4379 -149,-4862 9,-24 127,232 136,225 8,-6 -104,-306 -115,-348 -152,-545 -636,-1544 -234,-2162 171,-414 464,-1135 800,-1339 648,-394 1554,-652 1953,-1052l155 -155c68,38 198,32 337,48m-2513 9343c0,191 -42,381 -148,635m-933 9122l0 0z"/>
 </g>
</svg>
