<svg id="visual" viewBox="0 0 2000 1000" width="2000" height="1000" xmlns="http://www.w3.org/2000/svg" xmlns:xlink="http://www.w3.org/1999/xlink" version="1.1"><rect x="0" y="0" width="2000" height="1000" fill="#2b2d2f"></rect><path d="M0 705L47.7 714.5C95.3 724 190.7 743 285.8 738.2C381 733.3 476 704.7 571.2 695.5C666.3 686.3 761.7 696.7 857 707.7C952.3 718.7 1047.7 730.3 1143 730.3C1238.3 730.3 1333.7 718.7 1428.8 716.2C1524 713.7 1619 720.3 1714.2 722C1809.3 723.7 1904.7 720.3 1952.3 718.7L2000 717L2000 1001L1952.3 1001C1904.7 1001 1809.3 1001 1714.2 1001C1619 1001 1524 1001 1428.8 1001C1333.7 1001 1238.3 1001 1143 1001C1047.7 1001 952.3 1001 857 1001C761.7 1001 666.3 1001 571.2 1001C476 1001 381 1001 285.8 1001C190.7 1001 95.3 1001 47.7 1001L0 1001Z" fill="#fa7268"></path><path d="M0 765L47.7 773.8C95.3 782.7 190.7 800.3 285.8 804.5C381 808.7 476 799.3 571.2 786.7C666.3 774 761.7 758 857 752.8C952.3 747.7 1047.7 753.3 1143 769.7C1238.3 786 1333.7 813 1428.8 821.7C1524 830.3 1619 820.7 1714.2 813.2C1809.3 805.7 1904.7 800.3 1952.3 797.7L2000 795L2000 1001L1952.3 1001C1904.7 1001 1809.3 1001 1714.2 1001C1619 1001 1524 1001 1428.8 1001C1333.7 1001 1238.3 1001 1143 1001C1047.7 1001 952.3 1001 857 1001C761.7 1001 666.3 1001 571.2 1001C476 1001 381 1001 285.8 1001C190.7 1001 95.3 1001 47.7 1001L0 1001Z" fill="#ef5f67"></path><path d="M0 783L47.7 796C95.3 809 190.7 835 285.8 844.8C381 854.7 476 848.3 571.2 851.5C666.3 854.7 761.7 867.3 857 867C952.3 866.7 1047.7 853.3 1143 843.7C1238.3 834 1333.7 828 1428.8 826C1524 824 1619 826 1714.2 823.8C1809.3 821.7 1904.7 815.3 1952.3 812.2L2000 809L2000 1001L1952.3 1001C1904.7 1001 1809.3 1001 1714.2 1001C1619 1001 1524 1001 1428.8 1001C1333.7 1001 1238.3 1001 1143 1001C1047.7 1001 952.3 1001 857 1001C761.7 1001 666.3 1001 571.2 1001C476 1001 381 1001 285.8 1001C190.7 1001 95.3 1001 47.7 1001L0 1001Z" fill="#e34c67"></path><path d="M0 893L47.7 886.8C95.3 880.7 190.7 868.3 285.8 869C381 869.7 476 883.3 571.2 885.2C666.3 887 761.7 877 857 878.7C952.3 880.3 1047.7 893.7 1143 888.7C1238.3 883.7 1333.7 860.3 1428.8 855.3C1524 850.3 1619 863.7 1714.2 864.2C1809.3 864.7 1904.7 852.3 1952.3 846.2L2000 840L2000 1001L1952.3 1001C1904.7 1001 1809.3 1001 1714.2 1001C1619 1001 1524 1001 1428.8 1001C1333.7 1001 1238.3 1001 1143 1001C1047.7 1001 952.3 1001 857 1001C761.7 1001 666.3 1001 571.2 1001C476 1001 381 1001 285.8 1001C190.7 1001 95.3 1001 47.7 1001L0 1001Z" fill="#d53867"></path><path d="M0 936L47.7 933C95.3 930 190.7 924 285.8 923.7C381 923.3 476 928.7 571.2 932.2C666.3 935.7 761.7 937.3 857 932.3C952.3 927.3 1047.7 915.7 1143 908.3C1238.3 901 1333.7 898 1428.8 899.3C1524 900.7 1619 906.3 1714.2 913.2C1809.3 920 1904.7 928 1952.3 932L2000 936L2000 1001L1952.3 1001C1904.7 1001 1809.3 1001 1714.2 1001C1619 1001 1524 1001 1428.8 1001C1333.7 1001 1238.3 1001 1143 1001C1047.7 1001 952.3 1001 857 1001C761.7 1001 666.3 1001 571.2 1001C476 1001 381 1001 285.8 1001C190.7 1001 95.3 1001 47.7 1001L0 1001Z" fill="#c62368"></path></svg>